<svg xmlns="http://www.w3.org/2000/svg" viewBox="0 0 960 520" width="960" height="520" font-family="Helvetica Neue, Helvetica, Arial, Liberation Sans, sans-serif"><title>Delegation endet nicht beim Freigabeknopf</title><rect width="960" height="520" fill="#F5F6F7"/><defs><marker id="arr" viewBox="0 0 10 10" refX="9" refY="5" markerWidth="7" markerHeight="7" orient="auto"><path d="M0,0 L10,5 L0,10 z" fill="#8A9BA8"/></marker></defs><text x="30" y="38" font-size="16" fill="#1A3440" font-weight="bold" text-anchor="start">Delegation endet nicht beim Freigabeknopf</text><rect x="40" y="70" width="176" height="62" rx="6" fill="#2C5F7C" stroke="#2C5F7C" stroke-width="1.2"/><text x="128.0" y="106.0" font-size="13" fill="#ffffff" font-weight="bold" text-anchor="middle">Störungsmeldung</text><rect x="380" y="70" width="176" height="62" rx="6" fill="#2C5F7C" stroke="#2C5F7C" stroke-width="1.2"/><text x="468.0" y="106.0" font-size="13" fill="#ffffff" font-weight="bold" text-anchor="middle">Kontext und Quellen</text><rect x="720" y="70" width="176" height="62" rx="6" fill="#2C5F7C" stroke="#2C5F7C" stroke-width="1.2"/><text x="808.0" y="106.0" font-size="13" fill="#ffffff" font-weight="bold" text-anchor="middle">Agentenvorschlag</text><line x1="216" y1="101.0" x2="380" y2="101.0" stroke="#8A9BA8" stroke-width="1.8" marker-end="url(#arr)"/><line x1="556" y1="101.0" x2="720" y2="101.0" stroke="#8A9BA8" stroke-width="1.8" marker-end="url(#arr)"/><rect x="40" y="200" width="176" height="62" rx="6" fill="#1A3440" stroke="#1A3440" stroke-width="1.2"/><text x="128.0" y="236.0" font-size="13" fill="#ffffff" font-weight="bold" text-anchor="middle">Fachperson entscheidet</text><rect x="380" y="200" width="176" height="62" rx="6" fill="#2C5F7C" stroke="#2C5F7C" stroke-width="1.2"/><text x="468.0" y="236.0" font-size="13" fill="#ffffff" font-weight="bold" text-anchor="middle">Begrenzte Ausführung</text><rect x="720" y="200" width="176" height="62" rx="6" fill="#3D8B8B" stroke="#3D8B8B" stroke-width="1.2"/><text x="808.0" y="236.0" font-size="13" fill="#ffffff" font-weight="bold" text-anchor="middle">Ergebnisprüfung</text><line x1="440" y1="132" x2="440" y2="200" stroke="#8A9BA8" stroke-width="1.8" marker-end="url(#arr)"/><line x1="216" y1="231" x2="380" y2="231" stroke="#8A9BA8" stroke-width="1.8" marker-end="url(#arr)"/><line x1="556" y1="231" x2="720" y2="231" stroke="#8A9BA8" stroke-width="1.8" marker-end="url(#arr)"/><rect x="40" y="330" width="176" height="62" rx="6" fill="#BF3939" stroke="#BF3939" stroke-width="1.2"/><text x="128.0" y="366.0" font-size="13" fill="#ffffff" font-weight="bold" text-anchor="middle">Stop und Eskalation</text><rect x="380" y="330" width="176" height="62" rx="6" fill="#CC9A33" stroke="#CC9A33" stroke-width="1.2"/><text x="468.0" y="366.0" font-size="13" fill="#ffffff" font-weight="bold" text-anchor="middle">Manueller Rückfallprozess</text><rect x="720" y="330" width="176" height="62" rx="6" fill="#3D8B8B" stroke="#3D8B8B" stroke-width="1.2"/><text x="808.0" y="366.0" font-size="13" fill="#ffffff" font-weight="bold" text-anchor="middle">Gemeinsamer Lernreview</text><line x1="128.0" y1="262" x2="128.0" y2="330" stroke="#8A9BA8" stroke-width="1.8" marker-end="url(#arr)"/><line x1="216" y1="361" x2="380" y2="361" stroke="#8A9BA8" stroke-width="1.8" marker-end="url(#arr)"/><line x1="556" y1="361" x2="720" y2="361" stroke="#8A9BA8" stroke-width="1.8" marker-end="url(#arr)"/><line x1="808.0" y1="262" x2="808.0" y2="330" stroke="#8A9BA8" stroke-width="1.8" marker-end="url(#arr)"/><line x1="808" y1="392" x2="808" y2="440" stroke="#3D8B8B" stroke-width="2" marker-end="url(#arr)"/><path d="M808 440 L 40 440 L 40 101" fill="none" stroke="#3D8B8B" stroke-width="2" stroke-dasharray="6 5" marker-end="url(#arr)"/><text x="370" y="462" font-size="10" fill="#3D8B8B" font-weight="bold" text-anchor="start">Lernschleife: bestätigtes Ergebnis aktualisiert den Kontext</text></svg>